<?xml version="1.0" encoding="UTF-8"?>
<svg width="300.178018px" height="52.2000771px" viewBox="0 0 300.178018 52.2000771" version="1.1" xmlns="http://www.w3.org/2000/svg" xmlns:xlink="http://www.w3.org/1999/xlink">
    <title>Group</title>
    <g id="Homepage" stroke="none" stroke-width="1" fill="none" fill-rule="evenodd">
        <g id="Nouveau-sans-produit" transform="translate(-64.0158, -428.0195)" fill-rule="nonzero">
            <g id="Logo-OFF" transform="translate(28, 392)">
                <g id="Group" transform="translate(36.0158, 36.0195)">
                    <g transform="translate(126.4844, 5.6114)">
                        <path d="M16.0305054,3.93744726 L78.2526384,3.93744726 C86.415407,3.93744726 93.0326384,10.5546787 93.0326384,18.7174473 L93.0326384,21.8606228 C93.0326384,30.0233914 86.415407,36.6406228 78.2526384,36.6406228 L16.0305054,36.6406228 C7.86773681,36.6406228 1.25050541,30.0233914 1.25050541,21.8606228 L1.25050541,18.7174473 C1.25050541,10.5546787 7.86773681,3.93744726 16.0305054,3.93744726 Z" id="Rectangle" fill="#FF8714" transform="translate(47.1416, 20.289) rotate(-5) translate(-47.1416, -20.289)"></path>
                        <g transform="translate(7.3836, 7.5573)" fill="#FFFFFF">
                            <polygon id="Path" points="1.76475821 26.1744268 2.08989354e-14 6.00838774 13.8055564 4.79879305 14.1254188 8.45331317 4.51483974 9.2952499 4.96338245 14.4130487 13.2209802 13.6924391 13.5408426 17.3469592 5.28324488 18.0675688 5.95973552 25.8104454 1.76475821 26.1781034"></polygon>
                            <path d="M27.0522727,24.2920181 C25.5375219,24.4243749 24.1073324,24.2846649 22.7617043,23.8765646 C21.4160761,23.4684642 20.2211878,22.8287394 19.169686,21.9684198 C18.1218608,21.1044236 17.2725709,20.0676281 16.6181398,18.8506803 C15.9673852,17.6337324 15.5739912,16.2881043 15.4453109,14.8064427 C15.3166306,13.3284577 15.4636938,11.9313575 15.8828239,10.6224951 C16.3056305,9.31363279 16.9563851,8.14815706 17.8424408,7.12239136 C18.7248199,6.10030223 19.7947045,5.26939524 21.0484182,4.63334697 C22.3021318,3.9972987 23.6955555,3.61125784 25.2286892,3.4752244 C26.7618229,3.33919095 28.2030421,3.4752244 29.5486702,3.88700131 C30.8942983,4.29877823 32.0891867,4.92747334 33.1370119,5.78411638 C34.1848371,6.63708285 35.0304504,7.6738783 35.6738518,8.89082614 C36.3172532,10.107774 36.7032941,11.4570787 36.8319744,12.9350637 C36.9606547,14.4167253 36.8099149,15.8101489 36.3797551,17.1190113 C35.9495953,18.4278736 35.2914875,19.6007025 34.4091084,20.6338214 C33.5267293,21.6669402 32.4568447,22.5015238 31.203131,23.1375721 C29.9494174,23.7736203 28.5633469,24.1596612 27.0485961,24.2920181 L27.0522727,24.2920181 Z M26.7213805,20.5014645 C27.6405254,20.4205798 28.4787855,20.1852787 29.2361609,19.7918846 C29.9935363,19.3984906 30.6442909,18.8837695 31.1884247,18.2440446 C31.7325585,17.6043198 32.1333057,16.8653273 32.3869897,16.0270671 C32.6406736,15.1851304 32.725235,14.2806918 32.6406736,13.3027217 C32.5561123,12.3284281 32.3134581,11.4534021 31.920064,10.6776438 C31.52667,9.90188553 31.0045957,9.24377778 30.3575177,8.699644 C29.7104397,8.15551022 28.9788004,7.76211621 28.1662763,7.51210879 C27.3537522,7.26577796 26.4860794,7.18121663 25.5669345,7.26210138 C24.6477896,7.34298613 23.8095295,7.57461065 23.0521541,7.9606515 C22.2947787,8.34669236 21.6440241,8.8614135 21.0998903,9.50849151 C20.5557565,10.1555695 20.1586859,10.894562 19.9013253,11.725469 C19.6476414,12.556376 19.56308,13.4608146 19.6476414,14.4351082 C19.7322027,15.4094018 19.9748569,16.2881043 20.368251,17.0712157 C20.7653216,17.8543272 21.2873959,18.5124349 21.9307973,19.0492156 C22.5778753,19.5823196 23.3095146,19.9793902 24.1220387,20.2367508 C24.9345628,20.4941113 25.8022356,20.5823493 26.7213805,20.5014645 Z" id="Shape"></path>
                            <path d="M50.0639843,22.2772524 C48.5492336,22.4096093 47.1190441,22.2698993 45.773416,21.861799 C44.4277878,21.4536986 43.2328995,20.8139738 42.1813977,19.9536541 C41.1335725,19.0896579 40.2842826,18.0528625 39.6298515,16.8359146 C38.9790969,15.6189668 38.5857028,14.2733387 38.4570226,12.7916771 C38.3283423,11.3136921 38.4754055,9.91659185 38.8945355,8.60772951 C39.3173422,7.29886718 39.9680968,6.13339144 40.8541525,5.10762574 C41.7365316,4.08553661 42.8064162,3.25462962 44.0601299,2.61858135 C45.3138435,1.98253308 46.7072672,1.59649222 48.2404009,1.46045878 C49.7735346,1.32810191 51.2147538,1.46045878 52.5603819,1.87223569 C53.90601,2.28401261 55.1008984,2.91270772 56.1487236,3.76935077 C57.1965488,4.62231723 58.0421621,5.65911268 58.6855635,6.87606052 C59.3289649,8.09300837 59.7150058,9.44231308 59.8436861,10.9202981 C59.9723664,12.4019597 59.8216266,13.7953833 59.3914668,15.1042457 C58.961307,16.4167846 58.3031992,17.5859369 57.4208201,18.6190557 C56.538441,19.6521746 55.4685563,20.4867582 54.2148427,21.1228065 C52.9611291,21.7588547 51.5750586,22.1448956 50.0603078,22.2772524 L50.0639843,22.2772524 Z M49.7330922,18.4866989 C50.6522371,18.4058141 51.4904972,18.170513 52.2478726,17.777119 C53.005248,17.383725 53.6560026,16.8690039 54.2001364,16.229279 C54.7442702,15.5895542 55.1450173,14.8505617 55.3987013,14.0123015 C55.6523853,13.1703648 55.7369467,12.2659262 55.6523853,11.287956 C55.567824,10.3136624 55.3251697,9.4386365 54.9317757,8.66287821 C54.5383817,7.88711991 54.0163074,7.22901216 53.3692294,6.68487838 C52.7221514,6.1407446 51.9905121,5.74735059 51.177988,5.49734317 C50.3654639,5.25101234 49.4977911,5.16645101 48.5786462,5.24733576 C47.6595013,5.32822051 46.8175646,5.55984503 46.0601892,5.94588589 C45.3028138,6.33192674 44.6520592,6.84664789 44.1079254,7.49372589 C43.5637916,8.1408039 43.166721,8.8797964 42.9093605,9.71070339 C42.6556765,10.5416104 42.5711151,11.446049 42.6556765,12.4203426 C42.7402378,13.3946361 42.982892,14.2733387 43.3762861,15.0564501 C43.7733567,15.8395616 44.295431,16.4976693 44.9388324,17.0344499 C45.5859104,17.567554 46.3175497,17.9646246 47.1300738,18.2219852 C47.9425979,18.4793457 48.8102707,18.5675836 49.7294156,18.4866989 L49.7330922,18.4866989 Z" id="Shape"></path>
                            <path d="M63.1893735,20.802944 L61.4246153,0.63690495 L68.0020162,0.0596819539 C70.1859045,-0.131500185 72.1197853,0.136890125 73.7999822,0.861176306 C75.4801791,1.58546249 76.8294838,2.67005347 77.8478963,4.10759609 C78.8626323,5.54513871 79.4582382,7.2400419 79.6273609,9.18862909 C79.7964835,11.1372163 79.5060337,12.9130042 78.7560115,14.5159929 C78.0059893,16.1189816 76.862573,17.4241674 75.3331159,18.4315502 C73.8036588,19.438933 71.9469861,20.0382155 69.7630978,20.2293976 L63.1856969,20.8066206 L63.1893735,20.802944 Z M67.0644884,16.780766 L69.5535328,16.5638478 C70.8697483,16.4498738 71.9837519,16.0822158 72.8955436,15.468227 C73.8036588,14.8505617 74.483826,14.0380376 74.9323687,13.0269782 C75.3809114,12.0159188 75.5463575,10.8577962 75.4323836,9.55996363 C75.3184096,8.24374813 74.9507516,7.12974452 74.3367628,6.21795278 C73.7190975,5.30983762 72.9102499,4.63334697 71.9102203,4.19215742 C70.9065141,3.75096787 69.7483915,3.58919837 68.432176,3.70684891 L65.9431316,3.92376711 L67.068165,16.780766 L67.0644884,16.780766 Z" id="Shape"></path>
                        </g>
                    </g>
                    <g transform="translate(225.1942, 11.379)" fill="#000000">
                        <path d="M9.84588016,-1.04494677e-14 C8.47451597,-1.04494677e-14 7.28698076,0.250007412 6.27592137,0.750022237 C5.26486198,1.25003706 4.48910369,1.97432324 3.94496991,2.9192042 C3.40083613,3.86408515 3.12876924,5.02220773 3.12876924,6.39357192 L3.12876924,6.94873543 L-4.17978708e-14,6.94873543 L-4.17978708e-14,10.7650251 L3.12876924,10.7650251 L3.12876924,24.688232 L7.40095472,24.688232 L7.40095472,10.7650251 L11.3459246,10.7650251 L11.3459246,6.94873543 L7.40095472,6.94873543 L7.40095472,6.39357192 C7.40095472,5.48178018 7.66199188,4.81264269 8.18406618,4.38983604 C8.70614048,3.96702938 9.44513298,3.75378777 10.4010437,3.75378777 C10.5517834,3.75378777 10.7209061,3.76114093 10.9047351,3.76849408 C11.0885641,3.77952382 11.2907759,3.80525988 11.5076941,3.84937884 L11.5076941,0.165446082 C11.2907759,0.121327127 11.0223856,0.0845613307 10.7098764,0.0514721143 C10.3936905,0.018382898 10.1069173,0.00367657959 9.84588016,0.00367657959 L9.84588016,-1.04494677e-14 Z" id="Path"></path>
                        <path d="M23.9933584,7.35315919 C22.8830314,6.82005515 21.5999051,6.55534142 20.1439796,6.55534142 C18.9490912,6.55534142 17.8387642,6.75020014 16.8166751,7.14359415 C15.7945859,7.53331159 14.9085303,8.07376879 14.158508,8.7576126 C13.4084858,9.4414564 12.8606754,10.2539805 12.5114004,11.1878317 L16.0004744,12.8827349 C16.32769,12.0996234 16.8424111,11.4598986 17.5483144,10.9598838 C18.2542177,10.4598689 19.0630652,10.2098615 19.9785335,10.2098615 C20.9565037,10.2098615 21.7396151,10.4672221 22.3278679,10.9745901 C22.9161206,11.4856347 23.2065704,12.1216829 23.2065704,12.8827349 L23.2065704,13.4562813 L17.9564147,14.3166009 C16.5629911,14.5335191 15.4122217,14.9048537 14.5004299,15.426928 C13.5886382,15.9490023 12.908471,16.5960803 12.4636048,17.368162 C12.0187387,18.1402437 11.7944673,19.0152697 11.7944673,19.9932398 C11.7944673,20.97121 12.0444748,21.9124144 12.5444896,22.6844961 C13.0445044,23.4565778 13.7577608,24.0485071 14.6805823,24.460284 C15.6034038,24.872061 16.6843182,25.081626 17.9270021,25.081626 C18.9049723,25.081626 19.791028,24.9529457 20.5851692,24.6919086 C21.3793103,24.4308714 22.0962434,24.041154 22.7359682,23.5190797 C22.9970054,23.3058381 23.2396596,23.070537 23.4712841,22.8242061 L23.4712841,24.6955851 L27.5155217,24.6955851 L27.5155217,12.8900881 C27.5155217,11.6510807 27.206689,10.5517834 26.5853471,9.59587274 C25.9640051,8.63996205 25.1000089,7.89361639 23.9933584,7.36051235 L23.9933584,7.35315919 Z M22.6550835,19.6623477 C22.2837489,20.3351617 21.757998,20.8645892 21.0741542,21.2432769 C20.3903104,21.6256412 19.5998458,21.8131467 18.7101136,21.8131467 C18.01524,21.8131467 17.4343404,21.6329943 16.9637383,21.2763661 C16.4968126,20.9160613 16.2615115,20.4344294 16.2615115,19.8241172 C16.2615115,19.213805 16.4674,18.6880541 16.8828535,18.3093664 C17.2946304,17.9306787 17.9270021,17.6622884 18.7726154,17.5115486 L23.2065704,16.7247606 L23.2065704,17.4784594 C23.2065704,18.2615708 23.0227414,18.9895336 22.6514069,19.6623477 L22.6550835,19.6623477 Z" id="Shape"></path>
                        <path d="M36.5709372,11.1694488 C37.2989,10.7245827 38.129807,10.5003113 39.0673348,10.5003113 C40.0673644,10.5003113 40.9534201,10.7650251 41.7255018,11.2981291 C42.4975835,11.8312331 43.0453939,12.5518427 43.3726095,13.4673111 L47.1227207,11.8054971 C46.7734456,10.7613485 46.2035758,9.84955673 45.4094346,9.06644528 C44.6152934,8.28333383 43.674089,7.66934504 42.589498,7.2244789 C41.5012305,6.77961277 40.3284016,6.55534142 39.0673348,6.55534142 C37.2841937,6.55534142 35.6922347,6.95608859 34.2914579,7.76125953 C32.8906811,8.56643046 31.7840306,9.66205118 30.9825362,11.0554748 C30.1773653,12.4452219 29.7766181,14.0224746 29.7766181,15.7835562 C29.7766181,17.5446378 30.1847185,19.1255671 31.0009191,20.5263439 C31.8171198,21.9271207 32.9200937,23.0374477 34.3098408,23.8536484 C35.6995879,24.6698491 37.2878703,25.0779494 39.0710114,25.0779494 C40.3541376,25.0779494 41.5379963,24.8536781 42.6262638,24.4088119 C43.7145314,23.9639458 44.6483826,23.3426038 45.4314941,22.5484627 C46.2146055,21.7543215 46.7807988,20.857236 47.1263972,19.8572064 L43.3762861,18.1623032 C43.027011,19.0740949 42.4792006,19.8020577 41.7291784,20.3461915 C40.9791562,20.8903253 40.0931005,21.1623921 39.0710114,21.1623921 C38.1371601,21.1623921 37.3025766,20.9344442 36.5746138,20.4785483 C35.8466511,20.0226525 35.2767812,19.3902808 34.8613277,18.5887864 C34.4495508,17.7836155 34.2399858,16.860794 34.2399858,15.8166454 C34.2399858,14.7724968 34.4458742,13.8754114 34.8613277,13.0628873 C35.2731046,12.2466866 35.8429745,11.6179915 36.5746138,11.1731254 L36.5709372,11.1694488 Z" id="Path"></path>
                        <path d="M58.3987903,21.1329795 C57.7039167,21.1329795 57.1303703,21.0226821 56.6855042,20.8057639 C56.2406381,20.5888457 55.9134225,20.2726599 55.707534,19.860883 C55.5016456,19.4491061 55.3987013,18.9490912 55.3987013,18.3608385 L55.3987013,10.7613485 L59.4760281,10.7613485 L59.4760281,6.94505885 L55.3987013,6.94505885 L55.3987013,2.9008213 L51.0934266,2.9008213 L51.0934266,4.27218549 C51.0934266,5.14353485 50.8581255,5.80531918 50.3911999,6.26121505 C49.9242743,6.71711092 49.2551368,6.94505885 48.387464,6.94505885 L48.0602485,6.94505885 L48.0602485,10.7613485 L51.0934266,10.7613485 L51.0934266,18.5887864 C51.0934266,20.5888457 51.6485902,22.1366857 52.7552406,23.235983 C53.8655676,24.3352803 55.4170842,24.8830907 57.4171435,24.8830907 C57.7443591,24.8830907 58.1009873,24.8610312 58.4943814,24.8169123 C58.8840988,24.7727933 59.2333739,24.7286744 59.53853,24.688232 L59.53853,21.0373884 C59.3436712,21.0594479 59.1414594,21.0815074 58.9355709,21.1035669 C58.7296825,21.1256264 58.5495301,21.1366561 58.3987903,21.1366561 L58.3987903,21.1329795 Z" id="Path"></path>
                        <path d="M70.3881163,14.5114597 L67.5497969,13.6621698 C67.13802,13.5334895 66.7740386,13.3901029 66.4578528,13.2393631 C66.1416669,13.0886234 65.8990127,12.8937646 65.7225368,12.6511104 C65.5497376,12.4121327 65.4614997,12.1400658 65.4614997,11.8349097 C65.4614997,11.2907759 65.6673881,10.8606161 66.0828416,10.5481069 C66.4946186,10.231921 67.0608118,10.0738281 67.7777448,10.0738281 C68.6674771,10.0738281 69.472648,10.3091292 70.189581,10.7760548 C70.9065141,11.2429804 71.4175586,11.8790287 71.7227147,12.6841996 L74.9838408,11.1510659 C74.4397071,9.69514039 73.5279153,8.56275388 72.244789,7.76125953 C70.9616628,6.95608859 69.4836778,6.55534142 67.810834,6.55534142 C66.5277078,6.55534142 65.3916447,6.78328935 64.4026448,7.23918522 C63.4136449,7.69508109 62.6415631,8.33112936 62.0863996,9.14733003 C61.5312361,9.9635307 61.2554926,10.9120882 61.2554926,12.0003558 C61.2554926,13.2173036 61.6415335,14.2761586 62.4136152,15.1805971 C63.1856969,16.0813591 64.3107303,16.7394669 65.7887153,17.1549204 L68.6895366,17.9711211 C69.079254,18.0814184 69.4285291,18.2174519 69.7336852,18.3792214 C70.0388413,18.5409909 70.2814955,18.7395262 70.4690011,18.9674741 C70.6528301,19.1954221 70.7447446,19.4858719 70.7447446,19.8314703 C70.7447446,20.3976636 70.5167966,20.8535595 70.0609008,21.2028345 C69.6050049,21.5521096 68.9946927,21.7249088 68.2336407,21.7249088 C67.2336111,21.7249088 66.3254959,21.4418122 65.5092952,20.8756189 C64.6930946,20.3094257 64.0570463,19.5263142 63.6011504,18.5262846 L60.3731135,20.0594183 C60.9172473,21.6035817 61.8878643,22.8278827 63.2923177,23.7286447 C64.6930946,24.6294067 66.3402022,25.081626 68.2336407,25.081626 C69.5829454,25.081626 70.7557743,24.8536781 71.755804,24.3977822 C72.7558336,23.9418863 73.5389451,23.3058381 74.1051383,22.4896374 C74.6713316,21.6734367 74.9544282,20.7359089 74.9544282,19.6697008 C74.9544282,18.408634 74.5573576,17.3424259 73.7632164,16.4747532 C72.9690752,15.6070804 71.8440419,14.9526492 70.3881163,14.5188128 L70.3881163,14.5114597 Z" id="Path"></path>
                    </g>
                    <g transform="translate(44.8837, 17.9344)" fill="#000000">
                        <path d="M14.1511549,1.20591811 C12.7393483,0.400747176 11.1510659,0 9.38998429,0 C7.62890266,0 6.07370949,0.400747176 4.66190293,1.20591811 C3.25009636,2.01108904 2.11770985,3.10670976 1.27209654,4.50013342 C0.422806653,5.88988051 -1.04494677e-14,7.4781629 -1.04494677e-14,9.261304 C-1.04494677e-14,11.0444451 0.422806653,12.6327275 1.27209654,14.0224746 C2.12138643,15.4122217 3.25377294,16.511519 4.68028582,17.3166899 C6.10312213,18.1218608 7.67302161,18.522608 9.39366087,18.522608 C11.1143001,18.522608 12.7099357,18.1218608 14.1217422,17.3166899 C15.5335488,16.511519 16.6659353,15.4158982 17.5115486,14.0224746 C18.3608385,12.6327275 18.7836452,11.0444451 18.7836452,9.261304 C18.7836452,7.4781629 18.3645151,5.86414445 17.5299315,4.48542711 C16.6916714,3.10670976 15.566638,2.01108904 14.1548314,1.20959469 L14.1511549,1.20591811 Z M13.6768761,12.0150621 C13.2540694,12.8312628 12.6768464,13.4673111 11.9488837,13.9232069 C11.2209209,14.3791028 10.3679545,14.6070507 9.38998429,14.6070507 C8.41201411,14.6070507 7.5847837,14.3791028 6.84579121,13.9232069 C6.10679871,13.4673111 5.52589913,12.8312628 5.0994159,12.0150621 C4.67660924,11.1988614 4.46336763,10.2833931 4.46336763,9.261304 C4.46336763,8.23921487 4.67660924,7.32742313 5.0994159,6.5222522 C5.52222255,5.71708127 6.10312213,5.08838616 6.84579121,4.63249029 C7.5847837,4.17659442 8.43407359,3.94864649 9.38998429,3.94864649 C10.345895,3.94864649 11.2209209,4.17659442 11.9488837,4.63249029 C12.6768464,5.08838616 13.2540694,5.72075785 13.6768761,6.5222522 C14.0996827,7.32742313 14.3129244,8.23921487 14.3129244,9.261304 C14.3129244,10.2833931 14.0996827,11.202538 13.6768761,12.0150621 Z" id="Shape"></path>
                        <path d="M35.3650191,1.23900732 C34.0157144,0.411776915 32.5046402,0 30.8317965,0 C29.4641089,0 28.2545142,0.264713731 27.2140422,0.797817772 C26.3794586,1.22430101 25.6845851,1.79049426 25.125745,2.48904439 L25.125745,0.389717437 L21.0815074,0.389717437 L21.0815074,24.6514662 L25.3867821,24.6514662 L25.3867821,16.4269576 C25.9088564,16.9821211 26.5338749,17.4343404 27.2618377,17.7725858 C28.3390755,18.2726006 29.515581,18.522608 30.7987073,18.522608 C32.5156699,18.522608 34.0488036,18.1145077 35.3981083,17.298307 C36.7474131,16.4821063 37.8099446,15.3681027 38.593056,13.9562961 C39.3761675,12.5444896 39.7658849,10.9782667 39.7658849,9.261304 C39.7658849,7.54434133 39.3688143,5.95605894 38.5746731,4.56631186 C37.7805319,3.17656477 36.7106473,2.06623773 35.3613425,1.23900732 L35.3650191,1.23900732 Z M34.6811753,12.033445 C34.2473389,12.8386159 33.6554096,13.4673111 32.9053874,13.9232069 C32.1553651,14.3791028 31.2913689,14.6070507 30.3133988,14.6070507 C29.3354286,14.6070507 28.5376108,14.3791028 27.7875886,13.9232069 C27.0375663,13.4673111 26.4493136,12.8349394 26.026507,12.033445 C25.6037003,11.2282741 25.3904587,10.3054526 25.3904587,9.261304 C25.3904587,8.21715539 25.6037003,7.32742313 26.026507,6.5222522 C26.4493136,5.71708127 27.0375663,5.08838616 27.7875886,4.63249029 C28.5376108,4.17659442 29.3795475,3.94864649 30.3133988,3.94864649 C31.24725,3.94864649 32.1553651,4.17659442 32.9053874,4.63249029 C33.6554096,5.08838616 34.2473389,5.72075785 34.6811753,6.5222522 C35.1150117,7.32742313 35.3319299,8.23921487 35.3319299,9.261304 C35.3319299,10.2833931 35.1150117,11.2282741 34.6811753,12.033445 Z" id="Shape"></path>
                        <path d="M56.4979986,2.5772823 C55.7590061,1.77211136 54.8619207,1.14341625 53.8067424,0.687520384 C52.751564,0.231624514 51.5309396,0.00367657959 50.1375159,0.00367657959 C48.4646722,0.00367657959 46.9646277,0.404423755 45.6373825,1.20959469 C44.3101373,2.01476562 43.2586355,3.10670976 42.4755241,4.48542711 C41.6924126,5.86782103 41.3026952,7.44875026 41.3026952,9.22821478 C41.3026952,11.0076793 41.6813829,12.5114004 42.4424348,13.9232069 C43.2034868,15.3350135 44.2733715,16.4563703 45.6557654,17.2836007 C47.0344828,18.1108311 48.641148,18.522608 50.4647315,18.522608 C51.6596199,18.522608 52.7699469,18.338779 53.7920361,17.9674445 C54.8141252,17.5997865 55.6928277,17.088742 56.4318202,16.4343108 C57.1708127,15.7835562 57.7149465,15.033534 58.060545,14.1842441 L54.6045601,12.4893409 C54.2148427,13.1842144 53.6743855,13.7393779 52.9905417,14.1511549 C52.3066979,14.5629318 51.4757909,14.7724968 50.4941442,14.7724968 C49.5124974,14.7724968 48.6521778,14.5445489 47.9021555,14.088653 C47.1521333,13.6327571 46.58594,12.9856791 46.2072523,12.147419 C45.9793044,11.6437276 45.8359178,11.0959172 45.7770925,10.5003113 L58.5495301,10.5003113 C58.637768,10.2392742 58.6965932,9.95250096 58.7296825,9.63631512 C58.7627717,9.32012927 58.777478,9.00026685 58.777478,8.67305126 C58.777478,7.4781629 58.5826193,6.36415928 58.1892252,5.33104041 C57.7995078,4.29792155 57.2333146,3.37877665 56.4943221,2.5772823 L56.4979986,2.5772823 Z M45.8653304,7.20609601 C45.938862,6.83108489 46.0418063,6.48548641 46.1778397,6.1619474 C46.5381445,5.31265751 47.0638954,4.66190293 47.7587689,4.20600706 C48.4536425,3.75011119 49.2477837,3.52216325 50.1375159,3.52216325 C51.0272482,3.52216325 51.8691849,3.75011119 52.5346458,4.20600706 C53.1964302,4.66190293 53.6743855,5.28324488 53.9685119,6.06635633 C54.1008687,6.42298455 54.1817535,6.80534883 54.2074895,7.20609601 L45.8616539,7.20609601 L45.8653304,7.20609601 Z" id="Shape"></path>
                        <path d="M73.6786551,0.849289886 C72.6675957,0.283096629 71.5094731,0 70.2042874,0 C68.8991016,0 67.8402467,0.27574347 66.8953657,0.830906988 C66.1637264,1.25739022 65.5975331,1.84196638 65.1820796,2.57360572 L65.1820796,0.393394017 L61.1378421,0.393394017 L61.1378421,18.1328906 L65.4431168,18.1328906 L65.4431168,7.73184689 C65.4431168,6.94873543 65.5938566,6.27592137 65.8990127,5.70972811 C66.2041688,5.14353485 66.6269754,4.70969846 67.1711092,4.40454235 C67.715243,4.09938625 68.3329084,3.94864649 69.0314585,3.94864649 C69.7300086,3.94864649 70.347674,4.09938625 70.8918078,4.40454235 C71.4359415,4.70969846 71.8587482,5.14353485 72.1639043,5.70972811 C72.4690604,6.27592137 72.6198002,6.94873543 72.6198002,7.73184689 L72.6198002,18.1328906 L76.8919856,18.1328906 L76.8919856,6.7207875 C76.8919856,5.39354227 76.608889,4.22438995 76.0426958,3.21700715 C75.4765025,2.20594776 74.6897145,1.41915972 73.6786551,0.852966466 L73.6786551,0.849289886 Z" id="Path"></path>
                    </g>
                    <g>
                        <g transform="translate(0.0037, 9.0444)">
                            <path d="M0,18.0078869 C0,8.06273905 8.06273905,0 18.0078869,0 C27.9530347,0 36.0157737,8.06273905 36.0157737,18.0078869 L0,18.0078869 Z" id="Path" fill="#FF8C14"></path>
                            <circle id="Oval" fill="#8C3C00" cx="24.1073324" cy="6.3788656" r="1"></circle>
                            <circle id="Oval" fill="#8C3C00" cx="28.9310048" cy="10.8054674" r="1"></circle>
                            <circle id="Oval" fill="#8C3C00" cx="23.4749607" cy="11.8900584" r="1"></circle>
                        </g>
                        <path d="M9.2796869,42.7953865 L6.08106265,50.4353189 L10.2907463,52.2000771 L13.5187832,44.4939663 C14.9563258,44.8653008 16.4637234,45.0638361 18.01524,45.0638361 C27.9456815,45.0638361 36.0231269,36.9863907 36.0231269,27.0559492 L31.456815,27.0559492 C31.456815,34.4679337 25.4272245,40.5012008 18.0115634,40.5012008 C10.5959024,40.5012008 4.56631186,34.4716103 4.56631186,27.0559492 L0,27.0559492 C0,33.8171791 3.75011119,39.7180894 9.27601032,42.7990631 L9.2796869,42.7953865 Z" id="Path" fill="#000000"></path>
                        <path d="M25.4603137,0 C21.9197675,0 18.8424704,1.97432324 17.2578646,4.87882112 C18.478489,6.01120764 19.3939574,7.46345658 19.8719127,9.10688766 C23.9933584,8.1803896 27.0853619,4.5405758 27.1588935,0.158092923 C26.6074065,0.0551486939 26.0412133,0 25.4603137,0 L25.4603137,0 Z" id="Path" fill="#00641E"></path>
                        <path d="M10.9047351,2.37507042 C10.2025084,2.37507042 9.52234115,2.45595517 8.8642334,2.59934177 C9.99294334,6.49283956 13.581285,9.33851217 17.8350876,9.33851217 C18.5373143,9.33851217 19.2174815,9.25762742 19.8755893,9.11424082 C18.7468794,5.22074302 15.1585377,2.37507042 10.9047351,2.37507042 Z" id="Path" fill="#00961E"></path>
                    </g>
                </g>
            </g>
        </g>
    </g>
</svg>