<?xml version="1.0" encoding="UTF-8"?>
<svg width="300.178018px" height="52.2000771px" viewBox="0 0 300.178018 52.2000771" version="1.1" xmlns="http://www.w3.org/2000/svg" xmlns:xlink="http://www.w3.org/1999/xlink">
    <title>Group</title>
    <g id="Homepage" stroke="none" stroke-width="1" fill="none" fill-rule="evenodd">
        <g id="Nouveau-sans-produit" transform="translate(-64.0158, -428.0195)" fill-rule="nonzero">
            <g id="Group" transform="translate(64.0158, 428.0195)">
                <g transform="translate(127.7154, 6.8424)" fill="#FF8714" id="Combined-Shape">
                    <path d="M91.4900069,13.4927284 L91.7639527,16.6239432 C92.4753849,24.75565 86.4600638,31.9244305 78.328357,32.6358627 L16.342998,38.0588789 C8.21129115,38.7703111 1.0425106,32.7549899 0.331078436,24.6232831 L0.0571326406,21.4920684 C-0.65429952,13.3603616 5.3610216,6.19158102 13.4927284,5.48014886 L75.4780874,0.0571326406 C83.6097942,-0.65429952 90.7785748,5.3610216 91.4900069,13.4927284 Z M19.9581139,11.1250301 L6.15255757,12.3346248 L7.91731577,32.5006639 L12.1122931,32.1366825 L11.4358024,24.3938059 L19.6934002,23.6731963 L19.3735378,20.0186762 L11.11594,20.7392858 L10.6673973,15.621487 L20.2779764,14.7795502 L19.9581139,11.1250301 Z M35.7012278,10.2132384 C34.3555996,9.80146147 32.9143804,9.66542802 31.3812467,9.80146147 C29.8481131,9.93749491 28.4546894,10.3235358 27.2009757,10.959584 C25.9472621,11.5956323 24.8773774,12.4265393 23.9949983,13.4486284 C23.1089427,14.4743941 22.4581881,15.6398699 22.0353814,16.9487322 C21.6162513,18.2575945 21.4691882,19.6546948 21.5978684,21.1326798 C21.7265487,22.6143414 22.1199427,23.9599695 22.7706973,25.1769173 C23.4251285,26.3938652 24.2744184,27.4306606 25.3222436,28.2946568 C26.3737453,29.1549765 27.5686337,29.7947013 28.9142618,30.2028016 C30.25989,30.610902 31.6900794,30.750612 33.2048302,30.6182551 C34.7159044,30.4858983 36.1019749,30.0998574 37.3556886,29.4638091 C38.6094022,28.8277609 39.6792869,27.9931773 40.561666,26.9600584 C41.4440451,25.9269396 42.1021528,24.7541107 42.5323127,23.4452483 C42.9624725,22.136386 43.1132122,20.7429623 42.984532,19.2613008 C42.8558517,17.7833158 42.4698108,16.4340111 41.8264094,15.2170632 C41.1830079,14.0001154 40.3373946,12.9633199 39.2895695,12.1103535 C38.2417443,11.2537104 37.0468559,10.6250153 35.7012278,10.2132384 Z M58.7129395,8.19847276 C57.3673113,7.78669585 55.9260921,7.65433898 54.3929584,7.78669585 C52.8598247,7.92272929 51.4664011,8.30877015 50.2126874,8.94481842 C48.9589738,9.58086669 47.8890891,10.4117737 47.00671,11.4338628 C46.1206543,12.4596285 45.4698998,13.6251042 45.0470931,14.9339666 C44.627963,16.2428289 44.4808998,17.6399292 44.6095801,19.1179142 C44.7382604,20.5995757 45.1316544,21.9452039 45.782409,23.1621517 C46.4368402,24.3790996 47.2861301,25.415895 48.3339553,26.2798912 C49.385457,27.1402108 50.5803454,27.7799357 51.9259735,28.188036 C53.2716017,28.5961364 54.7017911,28.7358464 56.2165419,28.6034895 C57.7276161,28.4711327 59.1136866,28.0850918 60.3674003,27.4490435 C61.6211139,26.8129953 62.6909986,25.9784117 63.5733777,24.9452928 C64.4557568,23.912174 65.1138645,22.7430216 65.5440243,21.4304827 C65.9741842,20.1216204 66.1249239,18.7281967 65.9962436,17.2465351 C65.8675634,15.7685502 65.4815225,14.4192454 64.8381211,13.2022976 C64.1947196,11.9853497 63.3491063,10.9485543 62.3012811,10.0955878 C61.253456,9.23894479 60.0585676,8.61024968 58.7129395,8.19847276 Z M79.9525398,7.18741338 C78.2723429,6.4631272 76.338462,6.19473689 74.1545738,6.38591902 L67.5771729,6.96314202 L69.3419311,27.1291811 L75.9156554,26.5556347 C78.0995437,26.3644525 79.9562164,25.7651701 81.4856735,24.7577873 C83.0151306,23.7504045 84.1585468,22.4452187 84.9085691,20.84223 C85.6585913,19.2392413 85.9490411,17.4634533 85.7799184,15.5148662 C85.6107958,13.566279 85.0151899,11.8713758 84.0004539,10.4338332 C82.9820414,8.99629054 81.6327367,7.91169956 79.9525398,7.18741338 Z M31.7194921,13.5883385 C32.638637,13.5074537 33.5063098,13.592015 34.3188338,13.8383459 C35.1313579,14.0883533 35.8629973,14.4817473 36.5100753,15.0258811 C37.1571533,15.5700149 37.6792276,16.2281226 38.0726216,17.0038809 C38.4660156,17.7796392 38.7086699,18.6546651 38.7932312,19.6289587 C38.8777925,20.6069289 38.7932312,21.5113675 38.5395472,22.3533042 C38.2858632,23.1915644 37.8851161,23.9305569 37.3409823,24.5702817 C36.7968485,25.2100066 36.1460939,25.7247277 35.3887185,26.1181217 C34.6313431,26.5115157 33.793083,26.7468168 32.8739381,26.8277016 C31.9547932,26.9085863 31.0871204,26.8203484 30.2745963,26.5629878 C29.4620722,26.3056273 28.7304329,25.9085567 28.0833549,25.3754526 C27.4399534,24.838672 26.9178791,24.1805643 26.5208085,23.3974528 C26.1274145,22.6143414 25.8847603,21.7356388 25.8001989,20.7613452 C25.7156376,19.7870516 25.8001989,18.8826131 26.0538829,18.0517061 C26.3112435,17.2207991 26.7083141,16.4818066 27.2524479,15.8347286 C27.7965816,15.1876506 28.4473362,14.6729294 29.2047116,14.2868886 C29.962087,13.9008477 30.8003472,13.6692232 31.7194921,13.5883385 Z M54.7312038,11.5735728 C55.6503487,11.4926881 56.5180214,11.5772494 57.3305455,11.8235802 C58.1430696,12.0735877 58.874709,12.4669817 59.521787,13.0111155 C60.168865,13.5552492 60.6909393,14.213357 61.0843333,14.9891153 C61.4777273,15.7648736 61.7203816,16.6398995 61.8049429,17.6141931 C61.8895042,18.5921633 61.8049429,19.4966019 61.5512589,20.3385386 C61.2975749,21.1767987 60.8968277,21.9157912 60.352694,22.5555161 C59.8085602,23.1952409 59.1578056,23.7099621 58.4004302,24.1033561 C57.6430548,24.4967501 56.8047946,24.7320512 55.8856497,24.812936 C54.9628283,24.8938207 54.0951555,24.8055828 53.2826314,24.5482222 C52.4701073,24.2908617 51.738468,23.8937911 51.09139,23.360687 C50.4479885,22.8239064 49.9259142,22.1657986 49.5288436,21.3826872 C49.1354496,20.5995757 48.8927954,19.7208732 48.808234,18.7465796 C48.7236727,17.772286 48.808234,16.8678474 49.061918,16.0369405 C49.3192786,15.2060335 49.7163492,14.467041 50.260483,13.819963 C50.8046167,13.172885 51.4553713,12.6581638 52.2127467,12.272123 C52.9701221,11.8860821 53.8120589,11.6544576 54.7312038,11.5735728 Z M74.5847336,10.033086 C75.9009491,9.91543544 77.0590716,10.0772049 78.0627779,10.5183945 C79.0628075,10.959584 79.871655,11.6360747 80.4893204,12.5441898 C81.1033092,13.4559816 81.4709672,14.5699852 81.5849411,15.8862007 C81.6989151,17.1840333 81.533469,18.3421559 81.0849263,19.3532153 C80.6363836,20.3642746 79.9562164,21.1767987 79.0481012,21.7944641 C78.1363095,22.4084529 77.0223058,22.7761109 75.7060903,22.8900848 L73.22,23.107 L72.0956892,10.2500042 Z"></path>
                </g>
                <g transform="translate(225.1942, 11.379)" fill="#FFFFFF">
                    <path d="M9.84588016,-1.04494677e-14 C8.47451597,-1.04494677e-14 7.28698076,0.250007412 6.27592137,0.750022237 C5.26486198,1.25003706 4.48910369,1.97432324 3.94496991,2.9192042 C3.40083613,3.86408515 3.12876924,5.02220773 3.12876924,6.39357192 L3.12876924,6.94873543 L-4.17978708e-14,6.94873543 L-4.17978708e-14,10.7650251 L3.12876924,10.7650251 L3.12876924,24.688232 L7.40095472,24.688232 L7.40095472,10.7650251 L11.3459246,10.7650251 L11.3459246,6.94873543 L7.40095472,6.94873543 L7.40095472,6.39357192 C7.40095472,5.48178018 7.66199188,4.81264269 8.18406618,4.38983604 C8.70614048,3.96702938 9.44513298,3.75378777 10.4010437,3.75378777 C10.5517834,3.75378777 10.7209061,3.76114093 10.9047351,3.76849408 C11.0885641,3.77952382 11.2907759,3.80525988 11.5076941,3.84937884 L11.5076941,0.165446082 C11.2907759,0.121327127 11.0223856,0.0845613307 10.7098764,0.0514721143 C10.3936905,0.018382898 10.1069173,0.00367657959 9.84588016,0.00367657959 L9.84588016,-1.04494677e-14 Z" id="Path"></path>
                    <path d="M23.9933584,7.35315919 C22.8830314,6.82005515 21.5999051,6.55534142 20.1439796,6.55534142 C18.9490912,6.55534142 17.8387642,6.75020014 16.8166751,7.14359415 C15.7945859,7.53331159 14.9085303,8.07376879 14.158508,8.7576126 C13.4084858,9.4414564 12.8606754,10.2539805 12.5114004,11.1878317 L16.0004744,12.8827349 C16.32769,12.0996234 16.8424111,11.4598986 17.5483144,10.9598838 C18.2542177,10.4598689 19.0630652,10.2098615 19.9785335,10.2098615 C20.9565037,10.2098615 21.7396151,10.4672221 22.3278679,10.9745901 C22.9161206,11.4856347 23.2065704,12.1216829 23.2065704,12.8827349 L23.2065704,13.4562813 L17.9564147,14.3166009 C16.5629911,14.5335191 15.4122217,14.9048537 14.5004299,15.426928 C13.5886382,15.9490023 12.908471,16.5960803 12.4636048,17.368162 C12.0187387,18.1402437 11.7944673,19.0152697 11.7944673,19.9932398 C11.7944673,20.97121 12.0444748,21.9124144 12.5444896,22.6844961 C13.0445044,23.4565778 13.7577608,24.0485071 14.6805823,24.460284 C15.6034038,24.872061 16.6843182,25.081626 17.9270021,25.081626 C18.9049723,25.081626 19.791028,24.9529457 20.5851692,24.6919086 C21.3793103,24.4308714 22.0962434,24.041154 22.7359682,23.5190797 C22.9970054,23.3058381 23.2396596,23.070537 23.4712841,22.8242061 L23.4712841,24.6955851 L27.5155217,24.6955851 L27.5155217,12.8900881 C27.5155217,11.6510807 27.206689,10.5517834 26.5853471,9.59587274 C25.9640051,8.63996205 25.1000089,7.89361639 23.9933584,7.36051235 L23.9933584,7.35315919 Z M22.6550835,19.6623477 C22.2837489,20.3351617 21.757998,20.8645892 21.0741542,21.2432769 C20.3903104,21.6256412 19.5998458,21.8131467 18.7101136,21.8131467 C18.01524,21.8131467 17.4343404,21.6329943 16.9637383,21.2763661 C16.4968126,20.9160613 16.2615115,20.4344294 16.2615115,19.8241172 C16.2615115,19.213805 16.4674,18.6880541 16.8828535,18.3093664 C17.2946304,17.9306787 17.9270021,17.6622884 18.7726154,17.5115486 L23.2065704,16.7247606 L23.2065704,17.4784594 C23.2065704,18.2615708 23.0227414,18.9895336 22.6514069,19.6623477 L22.6550835,19.6623477 Z" id="Shape"></path>
                    <path d="M36.5709372,11.1694488 C37.2989,10.7245827 38.129807,10.5003113 39.0673348,10.5003113 C40.0673644,10.5003113 40.9534201,10.7650251 41.7255018,11.2981291 C42.4975835,11.8312331 43.0453939,12.5518427 43.3726095,13.4673111 L47.1227207,11.8054971 C46.7734456,10.7613485 46.2035758,9.84955673 45.4094346,9.06644528 C44.6152934,8.28333383 43.674089,7.66934504 42.589498,7.2244789 C41.5012305,6.77961277 40.3284016,6.55534142 39.0673348,6.55534142 C37.2841937,6.55534142 35.6922347,6.95608859 34.2914579,7.76125953 C32.8906811,8.56643046 31.7840306,9.66205118 30.9825362,11.0554748 C30.1773653,12.4452219 29.7766181,14.0224746 29.7766181,15.7835562 C29.7766181,17.5446378 30.1847185,19.1255671 31.0009191,20.5263439 C31.8171198,21.9271207 32.9200937,23.0374477 34.3098408,23.8536484 C35.6995879,24.6698491 37.2878703,25.0779494 39.0710114,25.0779494 C40.3541376,25.0779494 41.5379963,24.8536781 42.6262638,24.4088119 C43.7145314,23.9639458 44.6483826,23.3426038 45.4314941,22.5484627 C46.2146055,21.7543215 46.7807988,20.857236 47.1263972,19.8572064 L43.3762861,18.1623032 C43.027011,19.0740949 42.4792006,19.8020577 41.7291784,20.3461915 C40.9791562,20.8903253 40.0931005,21.1623921 39.0710114,21.1623921 C38.1371601,21.1623921 37.3025766,20.9344442 36.5746138,20.4785483 C35.8466511,20.0226525 35.2767812,19.3902808 34.8613277,18.5887864 C34.4495508,17.7836155 34.2399858,16.860794 34.2399858,15.8166454 C34.2399858,14.7724968 34.4458742,13.8754114 34.8613277,13.0628873 C35.2731046,12.2466866 35.8429745,11.6179915 36.5746138,11.1731254 L36.5709372,11.1694488 Z" id="Path"></path>
                    <path d="M58.3987903,21.1329795 C57.7039167,21.1329795 57.1303703,21.0226821 56.6855042,20.8057639 C56.2406381,20.5888457 55.9134225,20.2726599 55.707534,19.860883 C55.5016456,19.4491061 55.3987013,18.9490912 55.3987013,18.3608385 L55.3987013,10.7613485 L59.4760281,10.7613485 L59.4760281,6.94505885 L55.3987013,6.94505885 L55.3987013,2.9008213 L51.0934266,2.9008213 L51.0934266,4.27218549 C51.0934266,5.14353485 50.8581255,5.80531918 50.3911999,6.26121505 C49.9242743,6.71711092 49.2551368,6.94505885 48.387464,6.94505885 L48.0602485,6.94505885 L48.0602485,10.7613485 L51.0934266,10.7613485 L51.0934266,18.5887864 C51.0934266,20.5888457 51.6485902,22.1366857 52.7552406,23.235983 C53.8655676,24.3352803 55.4170842,24.8830907 57.4171435,24.8830907 C57.7443591,24.8830907 58.1009873,24.8610312 58.4943814,24.8169123 C58.8840988,24.7727933 59.2333739,24.7286744 59.53853,24.688232 L59.53853,21.0373884 C59.3436712,21.0594479 59.1414594,21.0815074 58.9355709,21.1035669 C58.7296825,21.1256264 58.5495301,21.1366561 58.3987903,21.1366561 L58.3987903,21.1329795 Z" id="Path"></path>
                    <path d="M70.3881163,14.5114597 L67.5497969,13.6621698 C67.13802,13.5334895 66.7740386,13.3901029 66.4578528,13.2393631 C66.1416669,13.0886234 65.8990127,12.8937646 65.7225368,12.6511104 C65.5497376,12.4121327 65.4614997,12.1400658 65.4614997,11.8349097 C65.4614997,11.2907759 65.6673881,10.8606161 66.0828416,10.5481069 C66.4946186,10.231921 67.0608118,10.0738281 67.7777448,10.0738281 C68.6674771,10.0738281 69.472648,10.3091292 70.189581,10.7760548 C70.9065141,11.2429804 71.4175586,11.8790287 71.7227147,12.6841996 L74.9838408,11.1510659 C74.4397071,9.69514039 73.5279153,8.56275388 72.244789,7.76125953 C70.9616628,6.95608859 69.4836778,6.55534142 67.810834,6.55534142 C66.5277078,6.55534142 65.3916447,6.78328935 64.4026448,7.23918522 C63.4136449,7.69508109 62.6415631,8.33112936 62.0863996,9.14733003 C61.5312361,9.9635307 61.2554926,10.9120882 61.2554926,12.0003558 C61.2554926,13.2173036 61.6415335,14.2761586 62.4136152,15.1805971 C63.1856969,16.0813591 64.3107303,16.7394669 65.7887153,17.1549204 L68.6895366,17.9711211 C69.079254,18.0814184 69.4285291,18.2174519 69.7336852,18.3792214 C70.0388413,18.5409909 70.2814955,18.7395262 70.4690011,18.9674741 C70.6528301,19.1954221 70.7447446,19.4858719 70.7447446,19.8314703 C70.7447446,20.3976636 70.5167966,20.8535595 70.0609008,21.2028345 C69.6050049,21.5521096 68.9946927,21.7249088 68.2336407,21.7249088 C67.2336111,21.7249088 66.3254959,21.4418122 65.5092952,20.8756189 C64.6930946,20.3094257 64.0570463,19.5263142 63.6011504,18.5262846 L60.3731135,20.0594183 C60.9172473,21.6035817 61.8878643,22.8278827 63.2923177,23.7286447 C64.6930946,24.6294067 66.3402022,25.081626 68.2336407,25.081626 C69.5829454,25.081626 70.7557743,24.8536781 71.755804,24.3977822 C72.7558336,23.9418863 73.5389451,23.3058381 74.1051383,22.4896374 C74.6713316,21.6734367 74.9544282,20.7359089 74.9544282,19.6697008 C74.9544282,18.408634 74.5573576,17.3424259 73.7632164,16.4747532 C72.9690752,15.6070804 71.8440419,14.9526492 70.3881163,14.5188128 L70.3881163,14.5114597 Z" id="Path"></path>
                </g>
                <g transform="translate(44.8837, 17.9344)" fill="#FFFFFF">
                    <path d="M14.1511549,1.20591811 C12.7393483,0.400747176 11.1510659,0 9.38998429,0 C7.62890266,0 6.07370949,0.400747176 4.66190293,1.20591811 C3.25009636,2.01108904 2.11770985,3.10670976 1.27209654,4.50013342 C0.422806653,5.88988051 -1.04494677e-14,7.4781629 -1.04494677e-14,9.261304 C-1.04494677e-14,11.0444451 0.422806653,12.6327275 1.27209654,14.0224746 C2.12138643,15.4122217 3.25377294,16.511519 4.68028582,17.3166899 C6.10312213,18.1218608 7.67302161,18.522608 9.39366087,18.522608 C11.1143001,18.522608 12.7099357,18.1218608 14.1217422,17.3166899 C15.5335488,16.511519 16.6659353,15.4158982 17.5115486,14.0224746 C18.3608385,12.6327275 18.7836452,11.0444451 18.7836452,9.261304 C18.7836452,7.4781629 18.3645151,5.86414445 17.5299315,4.48542711 C16.6916714,3.10670976 15.566638,2.01108904 14.1548314,1.20959469 L14.1511549,1.20591811 Z M13.6768761,12.0150621 C13.2540694,12.8312628 12.6768464,13.4673111 11.9488837,13.9232069 C11.2209209,14.3791028 10.3679545,14.6070507 9.38998429,14.6070507 C8.41201411,14.6070507 7.5847837,14.3791028 6.84579121,13.9232069 C6.10679871,13.4673111 5.52589913,12.8312628 5.0994159,12.0150621 C4.67660924,11.1988614 4.46336763,10.2833931 4.46336763,9.261304 C4.46336763,8.23921487 4.67660924,7.32742313 5.0994159,6.5222522 C5.52222255,5.71708127 6.10312213,5.08838616 6.84579121,4.63249029 C7.5847837,4.17659442 8.43407359,3.94864649 9.38998429,3.94864649 C10.345895,3.94864649 11.2209209,4.17659442 11.9488837,4.63249029 C12.6768464,5.08838616 13.2540694,5.72075785 13.6768761,6.5222522 C14.0996827,7.32742313 14.3129244,8.23921487 14.3129244,9.261304 C14.3129244,10.2833931 14.0996827,11.202538 13.6768761,12.0150621 Z" id="Shape"></path>
                    <path d="M35.3650191,1.23900732 C34.0157144,0.411776915 32.5046402,0 30.8317965,0 C29.4641089,0 28.2545142,0.264713731 27.2140422,0.797817772 C26.3794586,1.22430101 25.6845851,1.79049426 25.125745,2.48904439 L25.125745,0.389717437 L21.0815074,0.389717437 L21.0815074,24.6514662 L25.3867821,24.6514662 L25.3867821,16.4269576 C25.9088564,16.9821211 26.5338749,17.4343404 27.2618377,17.7725858 C28.3390755,18.2726006 29.515581,18.522608 30.7987073,18.522608 C32.5156699,18.522608 34.0488036,18.1145077 35.3981083,17.298307 C36.7474131,16.4821063 37.8099446,15.3681027 38.593056,13.9562961 C39.3761675,12.5444896 39.7658849,10.9782667 39.7658849,9.261304 C39.7658849,7.54434133 39.3688143,5.95605894 38.5746731,4.56631186 C37.7805319,3.17656477 36.7106473,2.06623773 35.3613425,1.23900732 L35.3650191,1.23900732 Z M34.6811753,12.033445 C34.2473389,12.8386159 33.6554096,13.4673111 32.9053874,13.9232069 C32.1553651,14.3791028 31.2913689,14.6070507 30.3133988,14.6070507 C29.3354286,14.6070507 28.5376108,14.3791028 27.7875886,13.9232069 C27.0375663,13.4673111 26.4493136,12.8349394 26.026507,12.033445 C25.6037003,11.2282741 25.3904587,10.3054526 25.3904587,9.261304 C25.3904587,8.21715539 25.6037003,7.32742313 26.026507,6.5222522 C26.4493136,5.71708127 27.0375663,5.08838616 27.7875886,4.63249029 C28.5376108,4.17659442 29.3795475,3.94864649 30.3133988,3.94864649 C31.24725,3.94864649 32.1553651,4.17659442 32.9053874,4.63249029 C33.6554096,5.08838616 34.2473389,5.72075785 34.6811753,6.5222522 C35.1150117,7.32742313 35.3319299,8.23921487 35.3319299,9.261304 C35.3319299,10.2833931 35.1150117,11.2282741 34.6811753,12.033445 Z" id="Shape"></path>
                    <path d="M56.4979986,2.5772823 C55.7590061,1.77211136 54.8619207,1.14341625 53.8067424,0.687520384 C52.751564,0.231624514 51.5309396,0.00367657959 50.1375159,0.00367657959 C48.4646722,0.00367657959 46.9646277,0.404423755 45.6373825,1.20959469 C44.3101373,2.01476562 43.2586355,3.10670976 42.4755241,4.48542711 C41.6924126,5.86782103 41.3026952,7.44875026 41.3026952,9.22821478 C41.3026952,11.0076793 41.6813829,12.5114004 42.4424348,13.9232069 C43.2034868,15.3350135 44.2733715,16.4563703 45.6557654,17.2836007 C47.0344828,18.1108311 48.641148,18.522608 50.4647315,18.522608 C51.6596199,18.522608 52.7699469,18.338779 53.7920361,17.9674445 C54.8141252,17.5997865 55.6928277,17.088742 56.4318202,16.4343108 C57.1708127,15.7835562 57.7149465,15.033534 58.060545,14.1842441 L54.6045601,12.4893409 C54.2148427,13.1842144 53.6743855,13.7393779 52.9905417,14.1511549 C52.3066979,14.5629318 51.4757909,14.7724968 50.4941442,14.7724968 C49.5124974,14.7724968 48.6521778,14.5445489 47.9021555,14.088653 C47.1521333,13.6327571 46.58594,12.9856791 46.2072523,12.147419 C45.9793044,11.6437276 45.8359178,11.0959172 45.7770925,10.5003113 L58.5495301,10.5003113 C58.637768,10.2392742 58.6965932,9.95250096 58.7296825,9.63631512 C58.7627717,9.32012927 58.777478,9.00026685 58.777478,8.67305126 C58.777478,7.4781629 58.5826193,6.36415928 58.1892252,5.33104041 C57.7995078,4.29792155 57.2333146,3.37877665 56.4943221,2.5772823 L56.4979986,2.5772823 Z M45.8653304,7.20609601 C45.938862,6.83108489 46.0418063,6.48548641 46.1778397,6.1619474 C46.5381445,5.31265751 47.0638954,4.66190293 47.7587689,4.20600706 C48.4536425,3.75011119 49.2477837,3.52216325 50.1375159,3.52216325 C51.0272482,3.52216325 51.8691849,3.75011119 52.5346458,4.20600706 C53.1964302,4.66190293 53.6743855,5.28324488 53.9685119,6.06635633 C54.1008687,6.42298455 54.1817535,6.80534883 54.2074895,7.20609601 L45.8616539,7.20609601 L45.8653304,7.20609601 Z" id="Shape"></path>
                    <path d="M73.6786551,0.849289886 C72.6675957,0.283096629 71.5094731,0 70.2042874,0 C68.8991016,0 67.8402467,0.27574347 66.8953657,0.830906988 C66.1637264,1.25739022 65.5975331,1.84196638 65.1820796,2.57360572 L65.1820796,0.393394017 L61.1378421,0.393394017 L61.1378421,18.1328906 L65.4431168,18.1328906 L65.4431168,7.73184689 C65.4431168,6.94873543 65.5938566,6.27592137 65.8990127,5.70972811 C66.2041688,5.14353485 66.6269754,4.70969846 67.1711092,4.40454235 C67.715243,4.09938625 68.3329084,3.94864649 69.0314585,3.94864649 C69.7300086,3.94864649 70.347674,4.09938625 70.8918078,4.40454235 C71.4359415,4.70969846 71.8587482,5.14353485 72.1639043,5.70972811 C72.4690604,6.27592137 72.6198002,6.94873543 72.6198002,7.73184689 L72.6198002,18.1328906 L76.8919856,18.1328906 L76.8919856,6.7207875 C76.8919856,5.39354227 76.608889,4.22438995 76.0426958,3.21700715 C75.4765025,2.20594776 74.6897145,1.41915972 73.6786551,0.852966466 L73.6786551,0.849289886 Z" id="Path"></path>
                </g>
                <g>
                    <g transform="translate(0.0037, 9.0444)">
                        <path d="M0,18.0078869 C0,8.06273905 8.06273905,0 18.0078869,0 C27.9530347,0 36.0157737,8.06273905 36.0157737,18.0078869 L0,18.0078869 Z" id="Path" fill="#FF8C14"></path>
                        <circle id="Oval" fill="#8C3C00" cx="24.1073324" cy="6.3788656" r="1"></circle>
                        <circle id="Oval" fill="#8C3C00" cx="28.9310048" cy="10.8054674" r="1"></circle>
                        <circle id="Oval" fill="#8C3C00" cx="23.4749607" cy="11.8900584" r="1"></circle>
                    </g>
                    <path d="M9.2796869,42.7953865 L6.08106265,50.4353189 L10.2907463,52.2000771 L13.5187832,44.4939663 C14.9563258,44.8653008 16.4637234,45.0638361 18.01524,45.0638361 C27.9456815,45.0638361 36.0231269,36.9863907 36.0231269,27.0559492 L31.456815,27.0559492 C31.456815,34.4679337 25.4272245,40.5012008 18.0115634,40.5012008 C10.5959024,40.5012008 4.56631186,34.4716103 4.56631186,27.0559492 L0,27.0559492 C0,33.8171791 3.75011119,39.7180894 9.27601032,42.7990631 L9.2796869,42.7953865 Z" id="Path" fill="#FFFFFF"></path>
                    <path d="M25.4603137,0 C21.9197675,0 18.8424704,1.97432324 17.2578646,4.87882112 C18.478489,6.01120764 19.3939574,7.46345658 19.8719127,9.10688766 C23.9933584,8.1803896 27.0853619,4.5405758 27.1588935,0.158092923 C26.6074065,0.0551486939 26.0412133,0 25.4603137,0 L25.4603137,0 Z" id="Path" fill="#00641E"></path>
                    <path d="M10.9047351,2.37507042 C10.2025084,2.37507042 9.52234115,2.45595517 8.8642334,2.59934177 C9.99294334,6.49283956 13.581285,9.33851217 17.8350876,9.33851217 C18.5373143,9.33851217 19.2174815,9.25762742 19.8755893,9.11424082 C18.7468794,5.22074302 15.1585377,2.37507042 10.9047351,2.37507042 Z" id="Path" fill="#00961E"></path>
                </g>
            </g>
        </g>
    </g>
</svg>