<?xml version="1.0" encoding="utf-8"?>
<svg xmlns="http://www.w3.org/2000/svg" viewBox="0 0 26 26" fill="#ffffff"><path d="M 10.5 3 C 9.789063 3 9.320313 3.289063 9.09375 3.6875 L 7.8125 6 L 6 6 C 6 5.449219 5.550781 5 5 5 L 3 5 C 2.449219 5 2 5.449219 2 6 L 2 6.1875 C 0.835938 6.601563 0 7.695313 0 9 L 0 19.125 C 0 21.816406 2.183594 24 4.875 24 L 21.125 24 C 23.816406 24 26 21.816406 26 19.125 L 26 10.875 C 26 8.183594 23.816406 6 21.125 6 L 20.1875 6 L 18.90625 3.6875 C 18.679688 3.289063 18.179688 3 17.5 3 Z M 4 6.5 C 4.828125 6.5 5.5 7.171875 5.5 8 C 5.5 8.828125 4.828125 9.5 4 9.5 C 3.171875 9.5 2.5 8.828125 2.5 8 C 2.5 7.171875 3.171875 6.5 4 6.5 Z M 14 6.9375 C 17.898438 6.9375 21.0625 10.101563 21.0625 14 C 21.0625 17.898438 17.898438 21.0625 14 21.0625 C 10.101563 21.0625 6.9375 17.902344 6.9375 14 C 6.9375 10.097656 10.101563 6.9375 14 6.9375 Z M 14 9.1875 C 11.34375 9.1875 9.1875 11.34375 9.1875 14 C 9.1875 16.65625 11.34375 18.8125 14 18.8125 C 16.65625 18.8125 18.8125 16.65625 18.8125 14 C 18.8125 11.34375 16.65625 9.1875 14 9.1875 Z" fill="#ffffff"/></svg>
