<?xml version="1.0" encoding="UTF-8"?>
<svg width="92px" height="114px" viewBox="0 0 92 114" version="1.1" xmlns="http://www.w3.org/2000/svg" xmlns:xlink="http://www.w3.org/1999/xlink">
    <title>footer-orange</title>
    <g id="Food-prefs" stroke="none" stroke-width="1" fill="none" fill-rule="evenodd">
        <g id="Food-prefs---0" transform="translate(-336, -131)" fill-rule="nonzero">
            <g id="Path" transform="translate(336, 131)">
                <path d="M78.9663831,100.966306 C96.344539,83.5880471 96.344539,55.412081 78.9663831,38.0338222 C61.5879425,20.6553926 33.412207,20.6553926 16.0337664,38.0338222 C-1.3445888,55.412081 -1.3445888,83.5880471 16.0337664,100.966306 C33.412207,118.344565 61.5879425,118.344565 78.9663831,100.966306 Z" fill="#A08D84"></path>
                <path d="M47.4998546,39 C48.8808097,39 50,37.8806838 50,36.5 C50,35.1193162 48.8808097,34 47.4998546,34 C46.1191903,34 45,35.1193162 45,36.5 C45,37.8806838 46.1191903,39 47.4998546,39 Z" fill="#52443D"></path>
                <path d="M52.5,53 C53.880584,53 55,51.8804582 55,50.4998546 C55,49.1192511 53.880584,48 52.5,48 C51.119416,48 50,49.1192511 50,50.4998546 C50,51.8804582 51.119416,53 52.5,53 Z" fill="#52443D"></path>
                <path d="M33.7504843,1.54923106 C25.8933301,5.50396591 21.2705316,13.3194236 21,21.5341503 C24.969801,22.6890475 28.6295641,24.8866869 31.520674,28 C39.6303244,21.3460519 42.4272491,9.80850193 37.6956655,0 C36.3596114,0.391019066 35.0387301,0.900831234 33.7504843,1.54923106 Z" fill="#52443D"></path>
                <path d="M4.31408165,23.3466781 C2.74394795,24.0868462 1.30704787,24.9753786 0,25.9779205 C6.90985416,32.9628494 18.1552634,35.150652 27.6859472,30.6533969 C29.2561388,29.9132016 30.6930966,29.0245338 32,28.022019 C25.0903481,21.03709 13.8446788,18.8493416 4.31408165,23.3466781 Z" fill="#85746C"></path>
            </g>
        </g>
    </g>
</svg>